<svg id="Layer_1" data-name="Layer 1" xmlns="http://www.w3.org/2000/svg" xmlns:xlink="http://www.w3.org/1999/xlink" viewBox="0 0 500 496.51"><defs><style>.cls-1{fill:url(#linear-gradient);}.cls-2{fill:url(#linear-gradient-2);}.cls-3{fill:url(#linear-gradient-3);}.cls-4{fill:url(#linear-gradient-4);}.cls-5{fill:url(#linear-gradient-5);}.cls-6{fill:url(#linear-gradient-6);}.cls-7{fill:url(#linear-gradient-7);}.cls-8{fill:url(#linear-gradient-8);}.cls-9{fill:url(#linear-gradient-9);}.cls-10{fill:url(#linear-gradient-10);}.cls-11{fill:url(#linear-gradient-11);}.cls-12{fill:url(#linear-gradient-12);}.cls-13{fill:url(#linear-gradient-13);}.cls-14{fill:url(#linear-gradient-14);}.cls-15{fill:url(#linear-gradient-15);}.cls-16{fill:url(#linear-gradient-16);}.cls-17{fill:url(#linear-gradient-17);}.cls-18{fill:url(#linear-gradient-18);}.cls-19{fill:url(#linear-gradient-19);}.cls-20{fill:url(#linear-gradient-20);}</style><linearGradient id="linear-gradient" x1="269.21" y1="165.52" x2="423.98" y2="165.52" gradientUnits="userSpaceOnUse"><stop offset="0" stop-color="#2c88ff"/><stop offset="1" stop-color="#0c46d6"/></linearGradient><linearGradient id="linear-gradient-2" x1="5065.25" y1="-4780.83" x2="5220.02" y2="-4780.83" gradientTransform="translate(4916.66 5330.45) rotate(-90)" xlink:href="#linear-gradient"/><linearGradient id="linear-gradient-3" x1="9753.24" y1="151.24" x2="9908.01" y2="151.24" gradientTransform="translate(9988.75 549.83) rotate(180)" xlink:href="#linear-gradient"/><linearGradient id="linear-gradient-4" x1="4634.7" y1="5064.28" x2="4789.46" y2="5064.28" gradientTransform="translate(5433.17 -4335.79) rotate(90)" xlink:href="#linear-gradient"/><linearGradient id="linear-gradient-5" x1="296.75" y1="280.31" x2="207.96" y2="280.31" xlink:href="#linear-gradient"/><linearGradient id="linear-gradient-6" x1="10.99" y1="180.03" x2="498.97" y2="197.8" xlink:href="#linear-gradient"/><linearGradient id="linear-gradient-7" x1="12.19" y1="147.1" x2="500.17" y2="164.87" xlink:href="#linear-gradient"/><linearGradient id="linear-gradient-8" x1="13.32" y1="116.18" x2="501.3" y2="133.94" xlink:href="#linear-gradient"/><linearGradient id="linear-gradient-9" x1="14.16" y1="92.96" x2="502.14" y2="110.73" xlink:href="#linear-gradient"/><linearGradient id="linear-gradient-10" x1="15.06" y1="68.33" x2="503.04" y2="86.1" xlink:href="#linear-gradient"/><linearGradient id="linear-gradient-11" x1="15.62" y1="52.86" x2="503.6" y2="70.63" xlink:href="#linear-gradient"/><linearGradient id="linear-gradient-12" x1="16.26" y1="35.32" x2="504.24" y2="53.09" xlink:href="#linear-gradient"/><linearGradient id="linear-gradient-13" x1="16.84" y1="19.5" x2="504.82" y2="37.27" xlink:href="#linear-gradient"/><linearGradient id="linear-gradient-14" x1="16.9" y1="17.71" x2="504.88" y2="35.47" xlink:href="#linear-gradient"/><linearGradient id="linear-gradient-15" x1="16.67" y1="24.17" x2="504.65" y2="41.94" xlink:href="#linear-gradient"/><linearGradient id="linear-gradient-16" x1="16.06" y1="40.74" x2="504.04" y2="58.5" xlink:href="#linear-gradient"/><linearGradient id="linear-gradient-17" x1="15.36" y1="60.11" x2="503.34" y2="77.87" xlink:href="#linear-gradient"/><linearGradient id="linear-gradient-18" x1="14.24" y1="90.95" x2="502.22" y2="108.72" xlink:href="#linear-gradient"/><linearGradient id="linear-gradient-19" x1="13.07" y1="122.88" x2="501.05" y2="140.64" xlink:href="#linear-gradient"/><linearGradient id="linear-gradient-20" x1="11.7" y1="160.72" x2="499.67" y2="178.49" xlink:href="#linear-gradient"/></defs><title>1IMDB_Brian_Cautaerts_logo</title><path d="M164.35,193.65l1.24-1.22,9.84,10-1.24,1.22Z" transform="translate(0 -1.74)"/><path d="M174.6,184.5l1.37-1.08,8.68,11.05-1.37,1.08Z" transform="translate(0 -1.74)"/><path d="M185.78,176.54l1.48-.92,7.43,11.93-1.48.92Z" transform="translate(0 -1.74)"/><path d="M197.84,169.81l1.58-.75,6.06,12.69-1.58.75Z" transform="translate(0 -1.74)"/><path d="M210.52,164.5l1.64-.57,4.62,13.27-1.65.57Z" transform="translate(0 -1.74)"/><path d="M223.71,160.62l1.7-.39,3.11,13.7-1.69.39Z" transform="translate(0 -1.74)"/><path d="M237.27,158.22,239,158l1.58,14-1.73.19Z" transform="translate(0 -1.74)"/><path d="M250.84,157.33l1.74,0,.23,14-1.74,0Z" transform="translate(0 -1.74)"/><path d="M264.75,157.92l1.73.18-1.48,14-1.73-.18Z" transform="translate(0 -1.74)"/><path d="M278.33,160l1.7.37-3,13.72-1.7-.37Z" transform="translate(0 -1.74)"/><path d="M291.61,163.61l1.65.56-4.51,13.31-1.65-.56Z" transform="translate(0 -1.74)"/><path d="M304.45,168.68l1.58.74-6,12.71-1.58-.74Z" transform="translate(0 -1.74)"/><path d="M316.62,175.11l1.48.91-7.33,12-1.49-.9Z" transform="translate(0 -1.74)"/><path d="M328,182.84l1.38,1.06L320.75,195l-1.38-1.07Z" transform="translate(0 -1.74)"/><path d="M338.46,191.78l1.26,1.22-9.78,10.09-1.25-1.21Z" transform="translate(0 -1.74)"/><path d="M347.87,201.8l1.11,1.34-10.82,9-1.11-1.34Z" transform="translate(0 -1.74)"/><path d="M356.14,212.8l.95,1.46L345.36,222l-1-1.45Z" transform="translate(0 -1.74)"/><path d="M363.13,224.63l.79,1.55-12.51,6.39-.79-1.55Z" transform="translate(0 -1.74)"/><path d="M368.8,237.22l.61,1.63-13.14,5-.61-1.63Z" transform="translate(0 -1.74)"/><path d="M373,250.31l.43,1.69-13.62,3.47-.43-1.69Z" transform="translate(0 -1.74)"/><path d="M375.78,263.8l.24,1.72-13.91,1.94-.24-1.72Z" transform="translate(0 -1.74)"/><path d="M377,277.5l.05,1.75-14.05.4,0-1.74Z" transform="translate(0 -1.74)"/><path d="M376.77,291.24l-.14,1.74-14-1.12.14-1.73Z" transform="translate(0 -1.74)"/><path d="M375,304.87l-.33,1.72-13.8-2.66.33-1.71Z" transform="translate(0 -1.74)"/><path d="M371.77,318.25l-.52,1.66-13.41-4.16.52-1.67Z" transform="translate(0 -1.74)"/><path d="M367.06,331.2l-.7,1.59-12.88-5.63.7-1.59Z" transform="translate(0 -1.74)"/><path d="M361,343.52l-.87,1.5-12.18-7,.87-1.51Z" transform="translate(0 -1.74)"/><path d="M353.49,355.12l-1,1.4-11.33-8.31,1-1.41Z" transform="translate(0 -1.74)"/><path d="M344.83,365.81l-1.18,1.28-10.35-9.51,1.18-1.29Z" transform="translate(0 -1.74)"/><path d="M335.06,375.46l-1.31,1.15L324.51,366l1.31-1.14Z" transform="translate(0 -1.74)"/><path d="M324.27,384l-1.42,1-8-11.54,1.43-1Z" transform="translate(0 -1.74)"/><path d="M312.61,391.31l-1.53.84-6.7-12.35,1.53-.83Z" transform="translate(0 -1.74)"/><path d="M300.21,397.3l-1.61.65-5.3-13,1.61-.65Z" transform="translate(0 -1.74)"/><path d="M287.22,401.87l-1.67.47-3.83-13.52,1.68-.47Z" transform="translate(0 -1.74)"/><path d="M273.81,405l-1.72.29-2.3-13.86,1.72-.28Z" transform="translate(0 -1.74)"/><path d="M260.15,406.57l-1.74.09-.76-14,1.74-.1Z" transform="translate(0 -1.74)"/><path d="M246.4,406.66l-1.74-.09.76-14,1.73.1Z" transform="translate(0 -1.74)"/><path d="M232.71,405.26,231,405l2.3-13.86,1.72.29Z" transform="translate(0 -1.74)"/><path d="M219.26,402.36l-1.67-.47,3.81-13.52,1.68.48Z" transform="translate(0 -1.74)"/><path d="M206.21,398l-1.62-.65,5.29-13,1.62.65Z" transform="translate(0 -1.74)"/><path d="M193.71,392.18l-1.53-.83,6.7-12.34,1.53.83Z" transform="translate(0 -1.74)"/><path d="M181.94,385l-1.43-1,8-11.53,1.43,1Z" transform="translate(0 -1.74)"/><path d="M171,376.66l-1.31-1.15L179,364.93l1.31,1.14Z" transform="translate(0 -1.74)"/><path d="M161.13,367.15,160,365.86l10.34-9.51,1.18,1.28Z" transform="translate(0 -1.74)"/><path d="M152.32,356.6l-1-1.4,11.31-8.33,1,1.4Z" transform="translate(0 -1.74)"/><path d="M144.68,345.09l-.87-1.51,12.18-7,.87,1.5Z" transform="translate(0 -1.74)"/><path d="M138.39,332.87l-.69-1.6,12.87-5.63.7,1.6Z" transform="translate(0 -1.74)"/><path d="M133.49,320l-.52-1.66,13.41-4.18.52,1.67Z" transform="translate(0 -1.74)"/><path d="M130,306.68l-.33-1.71,13.8-2.67.33,1.71Z" transform="translate(0 -1.74)"/><path d="M128.09,293.07l-.14-1.73,14-1.13.14,1.74Z" transform="translate(0 -1.74)"/><path d="M127.63,279.34l.05-1.74,14,.39,0,1.74Z" transform="translate(0 -1.74)"/><path d="M128.69,265.6l.24-1.72,13.91,1.94-.24,1.73Z" transform="translate(0 -1.74)"/><path d="M131.23,252.08l.43-1.69,13.62,3.47-.43,1.69Z" transform="translate(0 -1.74)"/><path d="M135.27,238.93l.62-1.63L149,242.25l-.61,1.63Z" transform="translate(0 -1.74)"/><path d="M140.76,226.26l.79-1.55,12.51,6.38-.79,1.55Z" transform="translate(0 -1.74)"/><path d="M147.58,214.34l1-1.46,11.73,7.72-1,1.45Z" transform="translate(0 -1.74)"/><path d="M155.68,203.21l1.11-1.34,10.82,9-1.11,1.34Z" transform="translate(0 -1.74)"/><path class="cls-1" d="M390.07,265.2H424A172.57,172.57,0,0,0,307.36,118.58L269.21,65.85v78.49A138.79,138.79,0,0,1,390.07,265.2Z" transform="translate(0 -1.74)"/><path class="cls-2" d="M235.5,144.34V110.43A172.57,172.57,0,0,0,88.88,227.05L36.16,265.2h78.49A138.78,138.78,0,0,1,235.5,144.34Z" transform="translate(0 -1.74)"/><path class="cls-3" d="M114.65,298.91H80.74A172.57,172.57,0,0,0,197.36,445.53l38.14,52.73V419.77A138.79,138.79,0,0,1,114.65,298.91Z" transform="translate(0 -1.74)"/><path class="cls-4" d="M269.21,419.77v33.9A172.58,172.58,0,0,0,415.83,337.06l52.73-38.15H390.07A138.8,138.8,0,0,1,269.21,419.77Z" transform="translate(0 -1.74)"/><polygon class="cls-5" points="252.36 224.35 207.96 336.27 252.36 294.02 296.75 336.27 252.36 224.35"/><path class="cls-6" d="M50.5,189l-5.86,15L0,186.61l5.85-15a33.77,33.77,0,0,1,4.92-9.05A12.14,12.14,0,0,1,17,158.28a17.59,17.59,0,0,1,7.68-.3,52.82,52.82,0,0,1,10.12,3,62.38,62.38,0,0,1,9.73,4.62,20.84,20.84,0,0,1,6,5.48,12.24,12.24,0,0,1,2.27,7.58A30.55,30.55,0,0,1,50.5,189Zm-14-16.42q-2.05-.94-5.76-2.39a59.41,59.41,0,0,0-6-2,12.42,12.42,0,0,0-4.55-.34,5.57,5.57,0,0,0-3.67,1.94,17.4,17.4,0,0,0-2.72,4.95l-2.33,6,28.89,11.24,2.33-6c1.28-3.29,1.37-6,.29-8.13C42.05,176,39.9,174.22,36.48,172.53Z" transform="translate(0 -1.74)"/><path class="cls-7" d="M61.73,164.23,20,140.7l4.78-8.47,41.73,23.54Z" transform="translate(0 -1.74)"/><path class="cls-8" d="M69.12,121.71l-6.72-5.13,8.47-11.09,19.76,15.1a107.57,107.57,0,0,1-8.63,14q-6.8,8.91-14.1,8.6T50.23,135Q39.88,127,37.94,120.06t4.43-15.32a73.91,73.91,0,0,1,9.77-10.36l1.93-1.72,5.82,4.8a133.84,133.84,0,0,0-9.13,10.45q-3.27,4.29-3.59,6.79A7.61,7.61,0,0,0,49,120.09q2.1,2.89,8.67,7.91t10.45,5.41q3.87.39,7.77-4.71l3.32-4.82-7.39-5.64Z" transform="translate(0 -1.74)"/><path class="cls-9" d="M96.93,116,63.27,81.85,70.19,75l33.66,34.1Z" transform="translate(0 -1.74)"/><path class="cls-10" d="M83,74.23,77.74,67.4l28-21.4L111,52.83l-10.08,7.7,23.88,31.24L117,97.67,93.15,66.44Z" transform="translate(0 -1.74)"/><path class="cls-11" d="M132.9,85.21,119.59,37.94l16.24-8.78,32.27,37-8.55,4.62-5.8-6.72-14.75,8,2.45,8.53ZM130,41.42l6.55,22.33,11.53-6.23L133,39.81Z" transform="translate(0 -1.74)"/><path class="cls-12" d="M198.32,56.41,172.5,65.14,157.14,19.76l9.21-3.11L179,53.89l16.62-5.63Z" transform="translate(0 -1.74)"/><path class="cls-13" d="M216.91,52.63,212,5l30.42-3.1.86,8.41L222.57,12.4l1.43,14,17-1.73.85,8.41-17,1.73,1.72,16.82Z" transform="translate(0 -1.74)"/><path class="cls-14" d="M263.07,34.24l-1.23,16-9.69-.75,3.67-47.77,18.54,1.43q16.86,1.29,15.65,17-.72,9.35-8.08,13.23l5.41,18.79-10.61-.82L272.41,35ZM278,24.93a8.63,8.63,0,0,0,2.11-5.42,8,8,0,0,0-1.37-5.62,6.52,6.52,0,0,0-5-2.43l-8.85-.68L263.71,26l9,.69A6.18,6.18,0,0,0,278,24.93Z" transform="translate(0 -1.74)"/><path class="cls-15" d="M326.73,57.39Q320.8,61.92,310.3,59T297.07,49.1q-2.7-6.93.71-19.15T307.16,13q6-4.73,16.49-1.79t13.17,10.08q2.64,7.16-.77,19.36T326.73,57.39ZM306.07,45.18q1,4.13,6.5,5.66t8.5-1.47q3-3,5.34-11.38t1.36-12.75q-1-4.36-6.4-5.89t-8.52,1.72q-3.11,3.22-5.44,11.61T306.07,45.18Z" transform="translate(0 -1.74)"/><path class="cls-16" d="M335.21,65.78l22.1-42.51,14.56,7.57-7.94,40.34.63.32,18.19-35L391.38,41l-22.1,42.51-14.19-7.38,7.57-40.53-.62-.32-18.2,35Z" transform="translate(0 -1.74)"/><path class="cls-17" d="M396.94,54.94l5.33-6.75L429.92,70l-5.32,6.75-10-7.86L390.29,99.76l-7.63-6L407,62.88Z" transform="translate(0 -1.74)"/><path class="cls-18" d="M403.13,110.69l35.54-32.12,20.79,23-6.28,5.67L438.92,91.46,430.61,99,442,111.62l-6.17,5.57-11.43-12.65-8.52,7.7L430.18,128l-6.27,5.66Z" transform="translate(0 -1.74)"/><path class="cls-19" d="M427.43,138.68l40.51-25.57,16.55,26.21-7.15,4.51-11.36-18-9.47,6,9.1,14.42-7,4.44-9.1-14.42-9.71,6.13,11.35,18L444,164.89Z" transform="translate(0 -1.74)"/><path class="cls-20" d="M465.23,173.22l-14.89,6-3.64-9,44.42-17.94,7,17.24q6.33,15.67-8.3,21.59-8.69,3.51-15.44-1.36L459.92,203l-4-9.87,12.81-11.17Zm15,9.22a8.62,8.62,0,0,0,5.79-.51,8.06,8.06,0,0,0,4.42-3.73,6.53,6.53,0,0,0,0-5.57l-3.33-8.23-14.11,5.71,3.38,8.36A6.17,6.17,0,0,0,480.21,182.44Z" transform="translate(0 -1.74)"/></svg>