<svg id="Layer_1" data-name="Layer 1" xmlns="http://www.w3.org/2000/svg" xmlns:xlink="http://www.w3.org/1999/xlink" viewBox="0 0 500 396.33"><defs><style>.cls-1{fill:url(#linear-gradient);}.cls-2{fill:url(#linear-gradient-2);}.cls-3{fill:url(#linear-gradient-3);}.cls-4{fill:url(#linear-gradient-4);}.cls-5{fill:#03fde8;}.cls-6{fill:url(#linear-gradient-5);}.cls-7{fill:url(#linear-gradient-6);}.cls-8{fill:url(#linear-gradient-7);}.cls-9{fill:url(#linear-gradient-8);}</style><linearGradient id="linear-gradient" x1="264.24" y1="250" x2="393.68" y2="250" gradientUnits="userSpaceOnUse"><stop offset="0" stop-color="#fab03c"/><stop offset="1" stop-color="#ff3148"/></linearGradient><linearGradient id="linear-gradient-2" x1="134.8" y1="250.01" x2="264.24" y2="250.01" xlink:href="#linear-gradient"/><linearGradient id="linear-gradient-3" x1="28.48" y1="198.16" x2="171.09" y2="198.16" xlink:href="#linear-gradient"/><linearGradient id="linear-gradient-4" x1="357.39" y1="198.16" x2="500" y2="198.16" xlink:href="#linear-gradient"/><linearGradient id="linear-gradient-5" x1="250" y1="250" x2="379.44" y2="250" gradientUnits="userSpaceOnUse"><stop offset="0" stop-color="#0a41d3"/><stop offset="1" stop-color="#2c88ff"/></linearGradient><linearGradient id="linear-gradient-6" x1="120.56" y1="250.01" x2="250" y2="250.01" gradientUnits="userSpaceOnUse"><stop offset="0" stop-color="#2c88ff"/><stop offset="1" stop-color="#0a41d3"/></linearGradient><linearGradient id="linear-gradient-7" x1="14.24" y1="198.16" x2="156.85" y2="198.16" xlink:href="#linear-gradient-5"/><linearGradient id="linear-gradient-8" x1="2508.25" y1="250" x2="2650.86" y2="250" gradientTransform="matrix(-1, 0, 0, 1, 2994.01, -51.84)" xlink:href="#linear-gradient-5"/></defs><title>1IMDB_Brian_Cautaerts_logo</title><path class="cls-1" d="M264.24,141.21h66.62l16.45,28.48H292.73v66.08h92.73L393.68,250l-8.23,14.25H292.73v94.54H264.24Z" transform="translate(0 -51.84)"/><path class="cls-2" d="M197.62,141.21,134.8,250,197.62,358.8h66.62V141.22ZM236.4,330.32H214.71L168.34,250l46.37-80.32H236.4Z" transform="translate(0 -51.84)"/><polygon class="cls-3" points="142.9 0 171.09 46.04 83.26 198.16 171.09 350.28 142.9 396.32 28.48 198.16 142.9 0"/><polygon class="cls-4" points="385.58 0 357.39 46.04 445.22 198.16 357.39 350.28 385.58 396.32 500 198.16 385.58 0"/><path class="cls-5" d="M235.76,141.21h66.62l16.44,28.48H264.24v66.08H357L365.2,250,357,264.25H264.24v94.54H235.76Z" transform="translate(0 -51.84)"/><path class="cls-5" d="M169.13,141.21,106.32,250,169.13,358.8h66.63V141.22Zm38.79,189.11H186.23L139.85,250l46.37-80.32h21.7Z" transform="translate(0 -51.84)"/><polygon class="cls-5" points="114.42 0 142.61 46.04 54.78 198.16 142.61 350.28 114.42 396.32 0 198.16 114.42 0"/><polygon class="cls-5" points="357.1 0 328.91 46.04 416.74 198.16 328.91 350.28 357.1 396.32 471.51 198.16 357.1 0"/><path class="cls-6" d="M250,141.21h66.62l16.45,28.48H278.49v66.08h92.73L379.44,250l-8.23,14.25H278.49v94.54H250Z" transform="translate(0 -51.84)"/><path class="cls-7" d="M183.38,141.21,120.56,250,183.38,358.8H250V141.22Zm38.78,189.11H200.47L154.1,250l46.37-80.32h21.69Z" transform="translate(0 -51.84)"/><polygon class="cls-8" points="128.66 0 156.85 46.04 69.02 198.16 156.85 350.28 128.66 396.32 14.24 198.16 128.66 0"/><polygon class="cls-9" points="371.34 0 343.15 46.04 430.98 198.16 343.15 350.28 371.34 396.32 485.76 198.16 371.34 0"/></svg>