<?xml version="1.0" encoding="utf-8"?>
<!-- Generator: Adobe Illustrator 24.0.1, SVG Export Plug-In . SVG Version: 6.00 Build 0)  -->
<svg version="1.1" id="Layer_1" xmlns="http://www.w3.org/2000/svg" xmlns:xlink="http://www.w3.org/1999/xlink" x="0px" y="0px"
	 viewBox="0 0 512 512" style="enable-background:new 0 0 512 512;" xml:space="preserve">
<style type="text/css">
	.st0{fill:url(#SVGID_1_);}
	.st1{fill:url(#SVGID_2_);}
	.st2{fill:url(#SVGID_3_);}
	.st3{fill:url(#SVGID_4_);}
</style>
<path d="M137,322.2c4.8-2.8,6.4-8.9,3.7-13.7c-2.8-4.8-8.9-6.4-13.7-3.7c13.7,3.7-6.4,8.9-3.7,13.7C126.1,323.4,132.2,325,137,322.2
	z"/>
<linearGradient id="SVGID_1_" gradientUnits="userSpaceOnUse" x1="1.599447e-04" y1="267.4223" x2="422.1797" y2="267.4223">
	<stop  offset="0" style="stop-color:#2C88FF"/>
	<stop  offset="1" style="stop-color:#0A41D3"/>
</linearGradient>
<path class="st0" d="M96,391.3l50.4,87.2c10.9,18.8,35.3,25.8,54.6,14.6c19.1-11.1,25.7-35.5,14.6-54.6l-30-52l26-15
	c4.8-2.8,6.4-8.9,3.7-13.7l-13-22.5c1.6-0.3,11.7-2.3,191.5-37.6c22.2-1.2,35.5-25.5,24.3-44.9l-33.2-57.6l21.2-32.2
	c2.1-3.2,2.2-7.2,0.3-10.5l-20-34.6c-1.9-3.3-5.5-5.2-9.3-5l-38.5,2.3l-36.9-63.9c-5.3-9.3-14.9-14.9-25.6-15c-0.1,0-0.3,0-0.4,0
	c-10.3,0-19.7,5.1-25.3,13.8L119.9,216.6l-84.9,49c-33.4,19.3-45,62.1-25.6,95.6C27.1,391.9,64.3,403.9,96,391.3z"/>
<linearGradient id="SVGID_2_" gradientUnits="userSpaceOnUse" x1="436.2747" y1="81.9883" x2="511.9995" y2="81.9883">
	<stop  offset="0" style="stop-color:#2C88FF"/>
	<stop  offset="1" style="stop-color:#0A41D3"/>
</linearGradient>
<path class="st1" d="M497.1,57.7l-55.7,31c-4.8,2.7-6.6,8.8-3.9,13.6c2.7,4.8,8.8,6.6,13.6,3.9l55.7-31c4.8-2.7,6.6-8.8,3.9-13.6
	C508.1,56.8,502,55.1,497.1,57.7z"/>
<linearGradient id="SVGID_3_" gradientUnits="userSpaceOnUse" x1="440.0631" y1="165.7995" x2="498.7104" y2="165.7995">
	<stop  offset="0" style="stop-color:#2C88FF"/>
	<stop  offset="1" style="stop-color:#0A41D3"/>
</linearGradient>
<path class="st2" d="M491.3,161.3L452.7,151c-5.3-1.4-10.8,1.7-12.2,7.1s1.7,10.8,7.1,12.2l38.6,10.4c5.4,1.4,10.8-1.8,12.2-7.1
	C499.8,168.2,496.6,162.7,491.3,161.3z"/>
<linearGradient id="SVGID_4_" gradientUnits="userSpaceOnUse" x1="383.4925" y1="43.3237" x2="413.8591" y2="43.3237">
	<stop  offset="0" style="stop-color:#2C88FF"/>
	<stop  offset="1" style="stop-color:#0A41D3"/>
</linearGradient>
<path class="st3" d="M394.2,21.4l-10.4,38.6c-1.4,5.3,1.7,10.8,7.1,12.2c5.3,1.4,10.8-1.7,12.2-7.1l10.4-38.6
	c1.4-5.3-1.7-10.8-7.1-12.2C401.1,12.9,395.6,16.1,394.2,21.4z"/>
</svg>
