<?xml version="1.0" encoding="utf-8"?>
<!-- Generator: Adobe Illustrator 24.0.1, SVG Export Plug-In . SVG Version: 6.00 Build 0)  -->
<svg version="1.1" id="Layer_1" xmlns="http://www.w3.org/2000/svg" xmlns:xlink="http://www.w3.org/1999/xlink" x="0px" y="0px"
	 viewBox="0 0 512 512" style="enable-background:new 0 0 512 512;" xml:space="preserve">
<style type="text/css">
	.st0{fill:url(#SVGID_1_);}
	.st1{fill:#FFFFFF;}
</style>
<g id="Computer">
	<linearGradient id="SVGID_1_" gradientUnits="userSpaceOnUse" x1="16" y1="256" x2="496" y2="256">
		<stop  offset="0" style="stop-color:#2C88FF"/>
		<stop  offset="1" style="stop-color:#0A41D3"/>
	</linearGradient>
	<path class="st0" d="M456,16H56c-22.1,0-40,17.9-40,40v304c0,22.1,17.9,40,40,40h132.5l-18,48H152c-13.3,0-24,10.7-24,24v16
		c0,4.4,3.6,8,8,8h240c4.4,0,8-3.6,8-8v-16c0-13.3-10.7-24-24-24h-18.5l-18-48H456c22.1,0,40-17.9,40-40V56
		C496,33.9,478.1,16,456,16z"/>
	<path class="st1" d="M256,328c-13.3,0-24,10.7-24,24s10.7,24,24,24c13.3,0,24-10.7,24-24S269.3,328,256,328z M256,360
		c-4.4,0-8-3.6-8-8s3.6-8,8-8s8,3.6,8,8S260.4,360,256,360z"/>
</g>
</svg>
